<mxfile host="app.diagrams.net" modified="2023-10-14T20:22:48.697Z" agent="Mozilla/5.0 (Windows NT 10.0; Win64; x64) AppleWebKit/537.36 (KHTML, like Gecko) Chrome/117.0.0.0 Safari/537.36 Edg/117.0.2045.60" etag="iCgVwQjxRz0FOF8byNXi" version="22.0.4" type="device">
  <diagram name="Страница — 1" id="qYca7lveoZfbwzdp-yEA">
    <mxGraphModel dx="1105" dy="600" grid="1" gridSize="10" guides="1" tooltips="1" connect="1" arrows="1" fold="1" page="1" pageScale="1" pageWidth="827" pageHeight="1169" math="0" shadow="0">
      <root>
        <mxCell id="0" />
        <mxCell id="1" parent="0" />
        <mxCell id="dX41OU-E9rddc6W8jMjg-2" value="Администратор отеля" style="swimlane;whiteSpace=wrap;html=1;fillColor=#ffe6cc;strokeColor=#d79b00;fontSize=15;" parent="1" vertex="1">
          <mxGeometry x="40" y="40" width="360" height="2160" as="geometry" />
        </mxCell>
        <mxCell id="dX41OU-E9rddc6W8jMjg-12" value="Ввод данных, необходимых для создания брони" style="rounded=1;whiteSpace=wrap;html=1;fontSize=15;" parent="dX41OU-E9rddc6W8jMjg-2" vertex="1">
          <mxGeometry x="25" y="480" width="310" height="40" as="geometry" />
        </mxCell>
        <mxCell id="dX41OU-E9rddc6W8jMjg-21" value="Выбор интересующей брони" style="rounded=1;whiteSpace=wrap;html=1;fontSize=15;" parent="dX41OU-E9rddc6W8jMjg-2" vertex="1">
          <mxGeometry x="32.5" y="1040" width="295" height="40" as="geometry" />
        </mxCell>
        <mxCell id="dX41OU-E9rddc6W8jMjg-54" value="Выбор действия с бронью: редактировать, отменить, подтвердить" style="rounded=1;whiteSpace=wrap;html=1;fontSize=15;" parent="dX41OU-E9rddc6W8jMjg-2" vertex="1">
          <mxGeometry x="10" y="1200" width="295" height="40" as="geometry" />
        </mxCell>
        <mxCell id="155Of8iI8X17WFosidfs-9" value="Ввод новых данных" style="rounded=1;whiteSpace=wrap;html=1;fontSize=15;" parent="dX41OU-E9rddc6W8jMjg-2" vertex="1">
          <mxGeometry x="25" y="1700" width="296" height="50" as="geometry" />
        </mxCell>
        <mxCell id="dX41OU-E9rddc6W8jMjg-3" value="&lt;font style=&quot;font-size: 14px;&quot;&gt;Система работы с бронированиями&lt;/font&gt;" style="swimlane;whiteSpace=wrap;html=1;fillColor=#fff2cc;strokeColor=#d6b656;" parent="1" vertex="1">
          <mxGeometry x="400" y="40" width="560" height="2160" as="geometry" />
        </mxCell>
        <mxCell id="dX41OU-E9rddc6W8jMjg-27" style="edgeStyle=orthogonalEdgeStyle;rounded=0;orthogonalLoop=1;jettySize=auto;html=1;exitX=0.5;exitY=1;exitDx=0;exitDy=0;entryX=0.5;entryY=0;entryDx=0;entryDy=0;fontSize=15;" parent="dX41OU-E9rddc6W8jMjg-3" source="dX41OU-E9rddc6W8jMjg-4" target="dX41OU-E9rddc6W8jMjg-5" edge="1">
          <mxGeometry relative="1" as="geometry" />
        </mxCell>
        <mxCell id="dX41OU-E9rddc6W8jMjg-4" value="" style="ellipse;whiteSpace=wrap;html=1;aspect=fixed;fillColor=#6d8764;strokeColor=#3A5431;fontSize=15;fontColor=#ffffff;" parent="dX41OU-E9rddc6W8jMjg-3" vertex="1">
          <mxGeometry x="240" y="40" width="40" height="40" as="geometry" />
        </mxCell>
        <mxCell id="dX41OU-E9rddc6W8jMjg-28" style="edgeStyle=orthogonalEdgeStyle;rounded=0;orthogonalLoop=1;jettySize=auto;html=1;exitX=0.5;exitY=1;exitDx=0;exitDy=0;entryX=0.5;entryY=0;entryDx=0;entryDy=0;" parent="dX41OU-E9rddc6W8jMjg-3" source="dX41OU-E9rddc6W8jMjg-5" target="dX41OU-E9rddc6W8jMjg-6" edge="1">
          <mxGeometry relative="1" as="geometry" />
        </mxCell>
        <mxCell id="dX41OU-E9rddc6W8jMjg-5" value="Отображение формы работы с бронированиями&amp;nbsp;" style="rounded=1;whiteSpace=wrap;html=1;fontSize=15;" parent="dX41OU-E9rddc6W8jMjg-3" vertex="1">
          <mxGeometry x="105" y="120" width="310" height="40" as="geometry" />
        </mxCell>
        <mxCell id="dX41OU-E9rddc6W8jMjg-29" style="edgeStyle=orthogonalEdgeStyle;rounded=0;orthogonalLoop=1;jettySize=auto;html=1;exitX=0;exitY=0.5;exitDx=0;exitDy=0;entryX=0.5;entryY=0;entryDx=0;entryDy=0;" parent="dX41OU-E9rddc6W8jMjg-3" source="dX41OU-E9rddc6W8jMjg-6" target="dX41OU-E9rddc6W8jMjg-9" edge="1">
          <mxGeometry relative="1" as="geometry" />
        </mxCell>
        <mxCell id="dX41OU-E9rddc6W8jMjg-30" style="edgeStyle=orthogonalEdgeStyle;rounded=0;orthogonalLoop=1;jettySize=auto;html=1;exitX=1;exitY=0.5;exitDx=0;exitDy=0;entryX=0.5;entryY=0;entryDx=0;entryDy=0;" parent="dX41OU-E9rddc6W8jMjg-3" source="dX41OU-E9rddc6W8jMjg-6" target="dX41OU-E9rddc6W8jMjg-10" edge="1">
          <mxGeometry relative="1" as="geometry" />
        </mxCell>
        <mxCell id="dX41OU-E9rddc6W8jMjg-6" value="Создать новую бронь или&lt;br style=&quot;font-size: 15px;&quot;&gt;работать с уже созданными?" style="rhombus;whiteSpace=wrap;html=1;fontSize=15;fillColor=#6d8764;fontColor=#ffffff;strokeColor=#3A5431;" parent="dX41OU-E9rddc6W8jMjg-3" vertex="1">
          <mxGeometry x="95" y="210" width="330" height="112" as="geometry" />
        </mxCell>
        <mxCell id="dX41OU-E9rddc6W8jMjg-7" value="Создать&lt;br style=&quot;font-size: 15px;&quot;&gt;новую" style="text;html=1;align=center;verticalAlign=middle;resizable=0;points=[];autosize=1;strokeColor=none;fillColor=none;fontSize=15;" parent="dX41OU-E9rddc6W8jMjg-3" vertex="1">
          <mxGeometry x="40" y="200" width="80" height="50" as="geometry" />
        </mxCell>
        <mxCell id="dX41OU-E9rddc6W8jMjg-8" value="Работать с &lt;br style=&quot;font-size: 15px;&quot;&gt;созданными" style="text;html=1;align=center;verticalAlign=middle;resizable=0;points=[];autosize=1;strokeColor=none;fillColor=none;fontSize=15;" parent="dX41OU-E9rddc6W8jMjg-3" vertex="1">
          <mxGeometry x="390" y="200" width="110" height="50" as="geometry" />
        </mxCell>
        <mxCell id="dX41OU-E9rddc6W8jMjg-9" value="Создать новую бронь" style="rounded=1;whiteSpace=wrap;html=1;fontSize=15;" parent="dX41OU-E9rddc6W8jMjg-3" vertex="1">
          <mxGeometry x="10" y="300" width="120" height="40" as="geometry" />
        </mxCell>
        <mxCell id="dX41OU-E9rddc6W8jMjg-10" value="Работать с созданными" style="rounded=1;whiteSpace=wrap;html=1;fontSize=15;" parent="dX41OU-E9rddc6W8jMjg-3" vertex="1">
          <mxGeometry x="390" y="300" width="120" height="40" as="geometry" />
        </mxCell>
        <mxCell id="dX41OU-E9rddc6W8jMjg-11" value="Отображение формы создания брони&amp;nbsp;" style="rounded=1;whiteSpace=wrap;html=1;fontSize=15;" parent="dX41OU-E9rddc6W8jMjg-3" vertex="1">
          <mxGeometry x="14" y="380" width="310" height="40" as="geometry" />
        </mxCell>
        <mxCell id="dX41OU-E9rddc6W8jMjg-46" style="edgeStyle=orthogonalEdgeStyle;rounded=0;orthogonalLoop=1;jettySize=auto;html=1;exitX=0.5;exitY=1;exitDx=0;exitDy=0;entryX=0.5;entryY=0;entryDx=0;entryDy=0;" parent="dX41OU-E9rddc6W8jMjg-3" source="dX41OU-E9rddc6W8jMjg-13" target="dX41OU-E9rddc6W8jMjg-14" edge="1">
          <mxGeometry relative="1" as="geometry" />
        </mxCell>
        <mxCell id="dX41OU-E9rddc6W8jMjg-13" value="Расчет стоимости брони" style="rounded=1;whiteSpace=wrap;html=1;fontSize=15;" parent="dX41OU-E9rddc6W8jMjg-3" vertex="1">
          <mxGeometry x="14" y="720" width="196" height="40" as="geometry" />
        </mxCell>
        <mxCell id="dX41OU-E9rddc6W8jMjg-47" style="edgeStyle=orthogonalEdgeStyle;rounded=0;orthogonalLoop=1;jettySize=auto;html=1;exitX=0;exitY=0.5;exitDx=0;exitDy=0;entryX=0.5;entryY=0;entryDx=0;entryDy=0;" parent="dX41OU-E9rddc6W8jMjg-3" source="dX41OU-E9rddc6W8jMjg-14" target="dX41OU-E9rddc6W8jMjg-17" edge="1">
          <mxGeometry relative="1" as="geometry" />
        </mxCell>
        <mxCell id="dX41OU-E9rddc6W8jMjg-48" style="edgeStyle=orthogonalEdgeStyle;rounded=0;orthogonalLoop=1;jettySize=auto;html=1;exitX=1;exitY=0.5;exitDx=0;exitDy=0;entryX=1;entryY=0.5;entryDx=0;entryDy=0;" parent="dX41OU-E9rddc6W8jMjg-3" source="dX41OU-E9rddc6W8jMjg-14" target="dX41OU-E9rddc6W8jMjg-5" edge="1">
          <mxGeometry relative="1" as="geometry">
            <Array as="points">
              <mxPoint x="520" y="836" />
              <mxPoint x="520" y="140" />
            </Array>
          </mxGeometry>
        </mxCell>
        <mxCell id="dX41OU-E9rddc6W8jMjg-14" value="Сохранить бронь?" style="rhombus;whiteSpace=wrap;html=1;fontSize=15;fillColor=#6d8764;fontColor=#ffffff;strokeColor=#3A5431;" parent="dX41OU-E9rddc6W8jMjg-3" vertex="1">
          <mxGeometry x="142" y="813" width="234" height="47" as="geometry" />
        </mxCell>
        <mxCell id="dX41OU-E9rddc6W8jMjg-15" value="Да" style="text;html=1;align=center;verticalAlign=middle;resizable=0;points=[];autosize=1;strokeColor=none;fillColor=none;fontSize=15;" parent="dX41OU-E9rddc6W8jMjg-3" vertex="1">
          <mxGeometry x="55" y="800" width="40" height="30" as="geometry" />
        </mxCell>
        <mxCell id="dX41OU-E9rddc6W8jMjg-16" value="Нет" style="text;html=1;align=center;verticalAlign=middle;resizable=0;points=[];autosize=1;strokeColor=none;fillColor=none;fontSize=15;" parent="dX41OU-E9rddc6W8jMjg-3" vertex="1">
          <mxGeometry x="402.5" y="800" width="50" height="30" as="geometry" />
        </mxCell>
        <mxCell id="dX41OU-E9rddc6W8jMjg-50" style="edgeStyle=orthogonalEdgeStyle;rounded=0;orthogonalLoop=1;jettySize=auto;html=1;exitX=0.5;exitY=1;exitDx=0;exitDy=0;entryX=0.5;entryY=0;entryDx=0;entryDy=0;" parent="dX41OU-E9rddc6W8jMjg-3" source="dX41OU-E9rddc6W8jMjg-17" target="dX41OU-E9rddc6W8jMjg-20" edge="1">
          <mxGeometry relative="1" as="geometry" />
        </mxCell>
        <mxCell id="dX41OU-E9rddc6W8jMjg-17" value="Сохранение брони" style="rounded=1;whiteSpace=wrap;html=1;fontSize=15;" parent="dX41OU-E9rddc6W8jMjg-3" vertex="1">
          <mxGeometry x="30" y="877" width="120" height="40" as="geometry" />
        </mxCell>
        <mxCell id="dX41OU-E9rddc6W8jMjg-20" value="Отображение существующих бронирований" style="rounded=1;whiteSpace=wrap;html=1;fontSize=15;" parent="dX41OU-E9rddc6W8jMjg-3" vertex="1">
          <mxGeometry x="70" y="960" width="382.5" height="40" as="geometry" />
        </mxCell>
        <mxCell id="dX41OU-E9rddc6W8jMjg-22" value="Отображение информации о брони" style="rounded=1;whiteSpace=wrap;html=1;fontSize=15;" parent="dX41OU-E9rddc6W8jMjg-3" vertex="1">
          <mxGeometry x="95" y="1120" width="335" height="40" as="geometry" />
        </mxCell>
        <mxCell id="dX41OU-E9rddc6W8jMjg-31" style="edgeStyle=orthogonalEdgeStyle;rounded=0;orthogonalLoop=1;jettySize=auto;html=1;exitX=0.5;exitY=1;exitDx=0;exitDy=0;entryX=0.179;entryY=0.017;entryDx=0;entryDy=0;entryPerimeter=0;" parent="dX41OU-E9rddc6W8jMjg-3" source="dX41OU-E9rddc6W8jMjg-9" target="dX41OU-E9rddc6W8jMjg-11" edge="1">
          <mxGeometry relative="1" as="geometry" />
        </mxCell>
        <mxCell id="dX41OU-E9rddc6W8jMjg-41" style="edgeStyle=orthogonalEdgeStyle;rounded=0;orthogonalLoop=1;jettySize=auto;html=1;exitX=1;exitY=0.5;exitDx=0;exitDy=0;entryX=0.5;entryY=0;entryDx=0;entryDy=0;" parent="dX41OU-E9rddc6W8jMjg-3" source="dX41OU-E9rddc6W8jMjg-35" target="dX41OU-E9rddc6W8jMjg-39" edge="1">
          <mxGeometry relative="1" as="geometry" />
        </mxCell>
        <mxCell id="dX41OU-E9rddc6W8jMjg-45" style="edgeStyle=orthogonalEdgeStyle;rounded=0;orthogonalLoop=1;jettySize=auto;html=1;exitX=0;exitY=0.5;exitDx=0;exitDy=0;entryX=0.25;entryY=0;entryDx=0;entryDy=0;" parent="dX41OU-E9rddc6W8jMjg-3" source="dX41OU-E9rddc6W8jMjg-35" target="dX41OU-E9rddc6W8jMjg-13" edge="1">
          <mxGeometry relative="1" as="geometry" />
        </mxCell>
        <mxCell id="dX41OU-E9rddc6W8jMjg-35" value="Данные введены верно?" style="rhombus;whiteSpace=wrap;html=1;fontSize=15;fillColor=#6d8764;fontColor=#ffffff;strokeColor=#3A5431;" parent="dX41OU-E9rddc6W8jMjg-3" vertex="1">
          <mxGeometry x="126.25" y="560" width="267.5" height="82" as="geometry" />
        </mxCell>
        <mxCell id="dX41OU-E9rddc6W8jMjg-37" value="Да" style="text;html=1;align=center;verticalAlign=middle;resizable=0;points=[];autosize=1;strokeColor=none;fillColor=none;fontSize=15;" parent="dX41OU-E9rddc6W8jMjg-3" vertex="1">
          <mxGeometry x="80" y="570" width="40" height="30" as="geometry" />
        </mxCell>
        <mxCell id="dX41OU-E9rddc6W8jMjg-38" value="Нет" style="text;html=1;align=center;verticalAlign=middle;resizable=0;points=[];autosize=1;strokeColor=none;fillColor=none;fontSize=15;" parent="dX41OU-E9rddc6W8jMjg-3" vertex="1">
          <mxGeometry x="402.5" y="570" width="50" height="30" as="geometry" />
        </mxCell>
        <mxCell id="dX41OU-E9rddc6W8jMjg-39" value="Выведение информации об ошибках" style="rounded=1;whiteSpace=wrap;html=1;fontSize=15;" parent="dX41OU-E9rddc6W8jMjg-3" vertex="1">
          <mxGeometry x="350" y="630" width="140" height="70" as="geometry" />
        </mxCell>
        <mxCell id="dX41OU-E9rddc6W8jMjg-42" style="edgeStyle=orthogonalEdgeStyle;rounded=0;orthogonalLoop=1;jettySize=auto;html=1;" parent="dX41OU-E9rddc6W8jMjg-3" edge="1">
          <mxGeometry relative="1" as="geometry">
            <mxPoint x="490" y="663.5288235294117" as="sourcePoint" />
            <mxPoint x="-102" y="480" as="targetPoint" />
            <Array as="points">
              <mxPoint x="500" y="664" />
              <mxPoint x="500" y="460" />
              <mxPoint x="-102" y="460" />
            </Array>
          </mxGeometry>
        </mxCell>
        <mxCell id="155Of8iI8X17WFosidfs-1" style="edgeStyle=orthogonalEdgeStyle;rounded=0;orthogonalLoop=1;jettySize=auto;html=1;exitX=0;exitY=0.5;exitDx=0;exitDy=0;" parent="dX41OU-E9rddc6W8jMjg-3" source="dX41OU-E9rddc6W8jMjg-56" target="dX41OU-E9rddc6W8jMjg-61" edge="1">
          <mxGeometry relative="1" as="geometry" />
        </mxCell>
        <mxCell id="155Of8iI8X17WFosidfs-6" style="edgeStyle=orthogonalEdgeStyle;rounded=0;orthogonalLoop=1;jettySize=auto;html=1;exitX=1;exitY=0.5;exitDx=0;exitDy=0;entryX=0.5;entryY=0;entryDx=0;entryDy=0;" parent="dX41OU-E9rddc6W8jMjg-3" source="dX41OU-E9rddc6W8jMjg-56" target="155Of8iI8X17WFosidfs-2" edge="1">
          <mxGeometry relative="1" as="geometry">
            <Array as="points">
              <mxPoint x="450" y="1311" />
              <mxPoint x="450" y="1416" />
              <mxPoint x="260" y="1416" />
            </Array>
          </mxGeometry>
        </mxCell>
        <mxCell id="dX41OU-E9rddc6W8jMjg-56" value="Действие подтвердить бронь?" style="rhombus;whiteSpace=wrap;html=1;fontSize=15;fillColor=#6d8764;fontColor=#ffffff;strokeColor=#3A5431;" parent="dX41OU-E9rddc6W8jMjg-3" vertex="1">
          <mxGeometry x="126.25" y="1270" width="267.5" height="82" as="geometry" />
        </mxCell>
        <mxCell id="dX41OU-E9rddc6W8jMjg-57" value="Да" style="text;html=1;align=center;verticalAlign=middle;resizable=0;points=[];autosize=1;strokeColor=none;fillColor=none;fontSize=15;" parent="dX41OU-E9rddc6W8jMjg-3" vertex="1">
          <mxGeometry x="80" y="1280" width="40" height="30" as="geometry" />
        </mxCell>
        <mxCell id="dX41OU-E9rddc6W8jMjg-58" value="Нет" style="text;html=1;align=center;verticalAlign=middle;resizable=0;points=[];autosize=1;strokeColor=none;fillColor=none;fontSize=15;" parent="dX41OU-E9rddc6W8jMjg-3" vertex="1">
          <mxGeometry x="402.5" y="1280" width="50" height="30" as="geometry" />
        </mxCell>
        <mxCell id="dX41OU-E9rddc6W8jMjg-61" value="Отправить подтверждение гостю" style="rounded=1;whiteSpace=wrap;html=1;fontSize=15;" parent="dX41OU-E9rddc6W8jMjg-3" vertex="1">
          <mxGeometry x="14" y="1390" width="170" height="50" as="geometry" />
        </mxCell>
        <mxCell id="155Of8iI8X17WFosidfs-8" style="edgeStyle=orthogonalEdgeStyle;rounded=0;orthogonalLoop=1;jettySize=auto;html=1;exitX=0;exitY=0.5;exitDx=0;exitDy=0;entryX=0.25;entryY=0;entryDx=0;entryDy=0;" parent="dX41OU-E9rddc6W8jMjg-3" source="155Of8iI8X17WFosidfs-2" target="155Of8iI8X17WFosidfs-5" edge="1">
          <mxGeometry relative="1" as="geometry" />
        </mxCell>
        <mxCell id="155Of8iI8X17WFosidfs-2" value="Действие редактировать &lt;br&gt;бронь?" style="rhombus;whiteSpace=wrap;html=1;fontSize=15;fillColor=#6d8764;fontColor=#ffffff;strokeColor=#3A5431;" parent="dX41OU-E9rddc6W8jMjg-3" vertex="1">
          <mxGeometry x="126.25" y="1480" width="267.5" height="82" as="geometry" />
        </mxCell>
        <mxCell id="155Of8iI8X17WFosidfs-3" value="Да" style="text;html=1;align=center;verticalAlign=middle;resizable=0;points=[];autosize=1;strokeColor=none;fillColor=none;fontSize=15;" parent="dX41OU-E9rddc6W8jMjg-3" vertex="1">
          <mxGeometry x="80" y="1490" width="40" height="30" as="geometry" />
        </mxCell>
        <mxCell id="155Of8iI8X17WFosidfs-4" value="Нет" style="text;html=1;align=center;verticalAlign=middle;resizable=0;points=[];autosize=1;strokeColor=none;fillColor=none;fontSize=15;" parent="dX41OU-E9rddc6W8jMjg-3" vertex="1">
          <mxGeometry x="402.5" y="1490" width="50" height="30" as="geometry" />
        </mxCell>
        <mxCell id="155Of8iI8X17WFosidfs-5" value="Вывести окно для редактирования данных" style="rounded=1;whiteSpace=wrap;html=1;fontSize=15;" parent="dX41OU-E9rddc6W8jMjg-3" vertex="1">
          <mxGeometry x="21" y="1600" width="296" height="50" as="geometry" />
        </mxCell>
        <mxCell id="155Of8iI8X17WFosidfs-17" style="edgeStyle=orthogonalEdgeStyle;rounded=0;orthogonalLoop=1;jettySize=auto;html=1;exitX=0.5;exitY=1;exitDx=0;exitDy=0;entryX=0.5;entryY=0;entryDx=0;entryDy=0;" parent="dX41OU-E9rddc6W8jMjg-3" source="155Of8iI8X17WFosidfs-11" target="155Of8iI8X17WFosidfs-13" edge="1">
          <mxGeometry relative="1" as="geometry" />
        </mxCell>
        <mxCell id="155Of8iI8X17WFosidfs-11" value="Сохранение новых данных" style="rounded=1;whiteSpace=wrap;html=1;fontSize=15;" parent="dX41OU-E9rddc6W8jMjg-3" vertex="1">
          <mxGeometry x="28" y="1790" width="296" height="50" as="geometry" />
        </mxCell>
        <mxCell id="155Of8iI8X17WFosidfs-18" style="edgeStyle=orthogonalEdgeStyle;rounded=0;orthogonalLoop=1;jettySize=auto;html=1;exitX=0;exitY=0.5;exitDx=0;exitDy=0;entryX=0.5;entryY=0;entryDx=0;entryDy=0;" parent="dX41OU-E9rddc6W8jMjg-3" source="155Of8iI8X17WFosidfs-13" target="155Of8iI8X17WFosidfs-16" edge="1">
          <mxGeometry relative="1" as="geometry" />
        </mxCell>
        <mxCell id="155Of8iI8X17WFosidfs-22" style="edgeStyle=orthogonalEdgeStyle;rounded=0;orthogonalLoop=1;jettySize=auto;html=1;exitX=1;exitY=0.5;exitDx=0;exitDy=0;entryX=0.5;entryY=0;entryDx=0;entryDy=0;" parent="dX41OU-E9rddc6W8jMjg-3" source="155Of8iI8X17WFosidfs-13" target="155Of8iI8X17WFosidfs-19" edge="1">
          <mxGeometry relative="1" as="geometry">
            <Array as="points">
              <mxPoint x="450" y="1921" />
              <mxPoint x="450" y="2080" />
              <mxPoint x="267" y="2080" />
            </Array>
          </mxGeometry>
        </mxCell>
        <mxCell id="155Of8iI8X17WFosidfs-13" value="Действие отменить бронь?" style="rhombus;whiteSpace=wrap;html=1;fontSize=15;fillColor=#6d8764;fontColor=#ffffff;strokeColor=#3A5431;" parent="dX41OU-E9rddc6W8jMjg-3" vertex="1">
          <mxGeometry x="126.25" y="1880" width="267.5" height="82" as="geometry" />
        </mxCell>
        <mxCell id="155Of8iI8X17WFosidfs-14" value="Да" style="text;html=1;align=center;verticalAlign=middle;resizable=0;points=[];autosize=1;strokeColor=none;fillColor=none;fontSize=15;" parent="dX41OU-E9rddc6W8jMjg-3" vertex="1">
          <mxGeometry x="80" y="1890" width="40" height="30" as="geometry" />
        </mxCell>
        <mxCell id="155Of8iI8X17WFosidfs-15" value="Нет" style="text;html=1;align=center;verticalAlign=middle;resizable=0;points=[];autosize=1;strokeColor=none;fillColor=none;fontSize=15;" parent="dX41OU-E9rddc6W8jMjg-3" vertex="1">
          <mxGeometry x="402.5" y="1890" width="50" height="30" as="geometry" />
        </mxCell>
        <mxCell id="155Of8iI8X17WFosidfs-20" style="edgeStyle=orthogonalEdgeStyle;rounded=0;orthogonalLoop=1;jettySize=auto;html=1;exitX=0.5;exitY=1;exitDx=0;exitDy=0;entryX=0.5;entryY=0;entryDx=0;entryDy=0;" parent="dX41OU-E9rddc6W8jMjg-3" source="155Of8iI8X17WFosidfs-16" target="155Of8iI8X17WFosidfs-19" edge="1">
          <mxGeometry relative="1" as="geometry" />
        </mxCell>
        <mxCell id="155Of8iI8X17WFosidfs-16" value="Удалить данные брони" style="rounded=1;whiteSpace=wrap;html=1;fontSize=15;" parent="dX41OU-E9rddc6W8jMjg-3" vertex="1">
          <mxGeometry x="14" y="2000" width="170" height="50" as="geometry" />
        </mxCell>
        <mxCell id="155Of8iI8X17WFosidfs-19" value="" style="ellipse;html=1;shape=endState;fillColor=#6d8764;strokeColor=#3A5431;fontColor=#ffffff;" parent="dX41OU-E9rddc6W8jMjg-3" vertex="1">
          <mxGeometry x="244" y="2110" width="46" height="40" as="geometry" />
        </mxCell>
        <mxCell id="dX41OU-E9rddc6W8jMjg-32" style="edgeStyle=orthogonalEdgeStyle;rounded=0;orthogonalLoop=1;jettySize=auto;html=1;exitX=0.5;exitY=1;exitDx=0;exitDy=0;entryX=0.5;entryY=0;entryDx=0;entryDy=0;" parent="1" source="dX41OU-E9rddc6W8jMjg-11" target="dX41OU-E9rddc6W8jMjg-12" edge="1">
          <mxGeometry relative="1" as="geometry" />
        </mxCell>
        <mxCell id="dX41OU-E9rddc6W8jMjg-36" style="edgeStyle=orthogonalEdgeStyle;rounded=0;orthogonalLoop=1;jettySize=auto;html=1;entryX=0.5;entryY=0;entryDx=0;entryDy=0;" parent="1" source="dX41OU-E9rddc6W8jMjg-12" target="dX41OU-E9rddc6W8jMjg-35" edge="1">
          <mxGeometry relative="1" as="geometry">
            <Array as="points">
              <mxPoint x="220" y="570" />
              <mxPoint x="660" y="570" />
            </Array>
          </mxGeometry>
        </mxCell>
        <mxCell id="dX41OU-E9rddc6W8jMjg-51" style="edgeStyle=orthogonalEdgeStyle;rounded=0;orthogonalLoop=1;jettySize=auto;html=1;exitX=0.5;exitY=1;exitDx=0;exitDy=0;entryX=0.5;entryY=0;entryDx=0;entryDy=0;" parent="1" source="dX41OU-E9rddc6W8jMjg-20" target="dX41OU-E9rddc6W8jMjg-21" edge="1">
          <mxGeometry relative="1" as="geometry" />
        </mxCell>
        <mxCell id="dX41OU-E9rddc6W8jMjg-52" style="edgeStyle=orthogonalEdgeStyle;rounded=0;orthogonalLoop=1;jettySize=auto;html=1;exitX=0.5;exitY=1;exitDx=0;exitDy=0;" parent="1" source="dX41OU-E9rddc6W8jMjg-21" target="dX41OU-E9rddc6W8jMjg-22" edge="1">
          <mxGeometry relative="1" as="geometry" />
        </mxCell>
        <mxCell id="dX41OU-E9rddc6W8jMjg-55" style="edgeStyle=orthogonalEdgeStyle;rounded=0;orthogonalLoop=1;jettySize=auto;html=1;exitX=0.5;exitY=1;exitDx=0;exitDy=0;entryX=0.5;entryY=0;entryDx=0;entryDy=0;" parent="1" source="dX41OU-E9rddc6W8jMjg-22" target="dX41OU-E9rddc6W8jMjg-54" edge="1">
          <mxGeometry relative="1" as="geometry" />
        </mxCell>
        <mxCell id="dX41OU-E9rddc6W8jMjg-59" style="edgeStyle=orthogonalEdgeStyle;rounded=0;orthogonalLoop=1;jettySize=auto;html=1;" parent="1" source="dX41OU-E9rddc6W8jMjg-54" target="dX41OU-E9rddc6W8jMjg-56" edge="1">
          <mxGeometry relative="1" as="geometry">
            <Array as="points">
              <mxPoint x="198" y="1290" />
              <mxPoint x="660" y="1290" />
            </Array>
          </mxGeometry>
        </mxCell>
        <mxCell id="155Of8iI8X17WFosidfs-10" style="edgeStyle=orthogonalEdgeStyle;rounded=0;orthogonalLoop=1;jettySize=auto;html=1;exitX=0.5;exitY=1;exitDx=0;exitDy=0;" parent="1" source="155Of8iI8X17WFosidfs-5" target="155Of8iI8X17WFosidfs-9" edge="1">
          <mxGeometry relative="1" as="geometry" />
        </mxCell>
        <mxCell id="155Of8iI8X17WFosidfs-12" style="edgeStyle=orthogonalEdgeStyle;rounded=0;orthogonalLoop=1;jettySize=auto;html=1;exitX=0.5;exitY=1;exitDx=0;exitDy=0;entryX=0.5;entryY=0;entryDx=0;entryDy=0;" parent="1" source="155Of8iI8X17WFosidfs-9" target="155Of8iI8X17WFosidfs-11" edge="1">
          <mxGeometry relative="1" as="geometry" />
        </mxCell>
      </root>
    </mxGraphModel>
  </diagram>
</mxfile>
